<?xml version="1.0" encoding="UTF-8"?>
<svg id="Layer_2" xmlns="http://www.w3.org/2000/svg" viewBox="0 0 159.42 53.34">
  <defs>
    <style>
      .cls-1 {
        fill: #231f20;
      }
    </style>
  </defs>
  <g id="Layer_1-2" data-name="Layer_1">
    <g>
      <path class="cls-1" d="M0,52.45v-.12c1.71-4.19,2.36-6.61,2.36-12.33v-18.29c0-5.78-.65-8.14-2.36-12.33v-.12c2.89,0,17.47-.06,19.06-.06,11.57-.06,15.05,4.42,15.05,9.91,0,4.37-2.07,8.85-9.03,10.74,7.85,1.42,11.03,5.72,11.03,11.09,0,6.9-4.78,11.51-16.34,11.51H0ZM16.46,29.32c5.67-.06,7.61-4.9,7.61-9.44,0-5.07-1.95-9.38-7.91-9.38-1.24,0-2.24.12-3.25.24v18.59h3.54ZM25.2,40.71c0-5.61-2.12-10.03-8.56-10.03h-3.72v20.3c1,.18,2.18.3,3.36.3,6.25,0,8.91-4.48,8.91-10.56Z"/>
      <path class="cls-1" d="M40.06,52.34c.83-2.36,1.42-4.42,1.42-9.15v-23.78c0-4.43-.83-6.9-2.95-9.38v-.12l12.45-3.42v36.7c0,4.6.59,6.79,1.42,9.15v.12h-12.33v-.12Z"/>
      <path class="cls-1" d="M70.8,48.74c-1.65,2.42-4.48,4.6-8.26,4.6s-6.67-1.83-6.67-5.9c0-6.37,8.08-9.15,14.75-10.56v-3.66c0-3.42-1.47-5.07-5.66-5.07-2.3,0-5.02.47-7.67,1.59l-.24-.41c2.83-3.42,7.49-6.55,13.87-6.55s9.21,3.13,9.21,7.73v15.16c0,1.42.65,2.66,2.54,2.66.65,0,1.48-.18,2.24-.71l.12.24c-.83,1.95-2.89,5.43-7.91,5.43-3.6,0-5.78-1.89-6.31-4.54ZM70.62,47.61v-9.5c-4.13,1.12-6.43,3.48-6.43,6.25,0,2.3,1.36,3.84,3.95,3.84.94,0,1.83-.24,2.48-.59Z"/>
      <g>
        <path class="cls-1" d="M91.97,0s2.92,6.54-4.55,11.21c-6.25,3.91-2.25,9.36,2.5,9.76,5.95.51,14.09-5.04,11.15-12.96-2.02-5.44-9.11-8.01-9.11-8.01Z"/>
        <path class="cls-1" d="M87.55,52.34c.83-2.89,1.47-5.37,1.47-10.27v-6.61c0-4.31-.88-6.84-3.01-9.32v-.24l12.45-3.42v19.59c0,4.84.47,7.38,1.42,10.27v.12h-12.33v-.12Z"/>
      </g>
      <path class="cls-1" d="M102.89,52.45v-.47l15.17-27.32-4.48.24c-3.13.12-6.14,4.25-9.68,7.85l-.41-.12,2.42-8.91h22.72v.47l-15.16,27.38,5.49-.24c3.66-.12,6.31-3.48,10.27-9.03l.41.12-2.36,10.03h-24.37Z"/>
      <path class="cls-1" d="M146.55,53.34c-8.91,0-14.34-6.49-14.34-14.75,0-9.26,6.37-15.81,14.57-15.81s12.75,6.55,12.63,12.57l-17.58-.06c.29,8.67,4.43,11.39,9.62,11.39,4.07,0,6.55-1.65,7.61-2.83l.29.18c-1.59,5.55-6.08,9.32-12.8,9.32ZM141.83,34.1l8.38-.12v-2.24c0-5.55-1.47-7.91-3.78-7.91-3.07,0-4.6,4.9-4.6,10.27Z"/>
    </g>
  </g>
</svg>